<?xml version="1.0" encoding="utf-8"?>
<!-- Generator: Adobe Illustrator 28.0.0, SVG Export Plug-In . SVG Version: 6.00 Build 0)  -->
<svg version="1.1" id="Layer_1" xmlns="http://www.w3.org/2000/svg" xmlns:xlink="http://www.w3.org/1999/xlink" x="0px" y="0px"
	 width="93.2px" height="88.2px" viewBox="0 0 93.2 88.2" style="enable-background:new 0 0 93.2 88.2;" xml:space="preserve">
<style type="text/css">
	.st0{fill:#E7C763;}
	.st1{fill:#F4683D;}
	.st2{fill:#64AFFE;}
	.st3{fill:#5B8963;}
	.st4{fill:#60473D;}
	.st5{fill:#BB663E;}
	.st6{fill:#9B332E;}
	.st7{fill:#281017;}
	.st8{fill:#770E27;}
</style>
<path class="st0" d="M19.5,2.1L19.5,2.1L0.9,2.2C0.4,2.2,0,2.6,0,3.1l0.6,84.2c0,0.5,0.4,0.9,0.9,0.9l0,0l18.7-0.1
	c0.3,0,0.5-0.1,0.7-0.4h-5.4c0,0,0-5,1.4-11.6l-7.1,0.1l0-2.3l7.7-0.1c0.8-3.1,1.9-6.4,3.5-9.6v-1.1L9.6,63.3l0-2.3l11.2-0.1
	l-0.1-10.6L9.5,50.4l0-2.3L20.7,48l-0.1-10.5c0,0-0.1-0.1-0.1-0.2L9.5,37.4l0-2.3l10.3-0.1c0-0.1,0-0.2,0-0.3c0-1,0.3-2,0.9-2.8
	l-0.1-8.2v0.7L9.4,24.5l0-2.3l11.2-0.1l-0.1-10.6L9.3,11.6l0-2.3l11.2-0.1l0-6.3C20.4,2.5,20,2.1,19.5,2.1"/>
<polyline class="st1" points="20.4,9.2 20.4,9.2 9.3,9.3 9.3,11.6 20.4,11.5 20.4,11.5 20.4,9.2 "/>
<polyline class="st1" points="20.5,22.1 20.5,22.1 9.3,22.2 9.4,24.5 20.5,24.4 20.5,23.7 20.5,22.1 "/>
<path class="st1" d="M19.7,35L9.4,35.1l0,2.3l11.1-0.1C20.1,36.7,19.8,35.9,19.7,35"/>
<polyline class="st1" points="20.7,48 20.7,48 9.5,48 9.5,50.3 20.7,50.3 20.7,48 "/>
<polyline class="st1" points="20.8,60.9 20.8,60.9 9.6,61 9.6,63.3 20.8,63.2 20.8,63.2 20.8,60.9 "/>
<path class="st1" d="M17.3,73.8l-7.6,0.1l0,2.3l7.1-0.1C17,75.4,17.1,74.6,17.3,73.8"/>
<path class="st2" d="M72.5,52c-5.1,6.1-12.8,10-21.3,10s-16-3.8-21.1-9.7c-4.2,3.3-7.1,7.6-9.3,12l0.1,9.6l0,0l0,2.3l0,0L21,87.2
	c0,0.2-0.1,0.4-0.2,0.5h67.6C87.5,68.1,80.4,57.6,72.5,52"/>
<path class="st3" d="M20.9,76.1l-4.1,0c-1.4,6.6-1.4,11.6-1.4,11.6h5.4c0.1-0.1,0.2-0.3,0.2-0.5L20.9,76.1 M20.8,64.2
	c-1.6,3.2-2.7,6.5-3.5,9.6l3.5,0L20.8,64.2"/>
<path class="st4" d="M20.9,73.8L20.9,73.8l-3.5,0c-0.2,0.8-0.4,1.6-0.5,2.3l4.1,0l0,0L20.9,73.8"/>
<path class="st5" d="M34.5,46.4c-2,0-3.7-1.7-3.7-3.7s1.7-3.7,3.7-3.7s3.7,1.7,3.7,3.7S36.6,46.4,34.5,46.4 M67.8,46.2
	c-2.1,0-3.7-1.7-3.7-3.7s1.7-3.7,3.7-3.7s3.7,1.7,3.7,3.7C71.5,44.5,69.8,46.2,67.8,46.2 M51.1,6.5C37.3,6.5,25.8,16.7,23.7,30
	c-1.3,0.2-2.4,0.9-3.2,2c-0.5,0.8-0.9,1.7-0.9,2.8c0,0.1,0,0.2,0,0.3c0.1,0.8,0.3,1.6,0.8,2.3c0,0,0.1,0.1,0.1,0.2
	c0.8,1,1.9,1.8,3.3,1.9c0.9,4.8,3.1,9.2,6.2,12.8c5.1,5.9,12.6,9.7,21.1,9.7s16.2-3.9,21.3-10c2.9-3.6,5-7.8,5.9-12.5
	c2.4-0.3,4.2-2.3,4.2-4.7s-1.8-4.4-4-4.7C76.5,16.7,65,6.5,51.1,6.5"/>
<path d="M68.4,35.2c-0.1-2-1.8-3.5-3.7-3.6c-2.2-0.1-4.1,1.7-4.1,3.9v0c0,0.6,0.8,0.9,1.2,0.5c0.7-0.7,1.7-1.1,2.7-1.1
	c1,0,2,0.4,2.7,1.1c0.4,0.4,1.2,0.1,1.2-0.5C68.4,35.4,68.4,35.3,68.4,35.2L68.4,35.2z"/>
<path d="M37.7,31.6c-2,0.1-3.6,1.7-3.7,3.6c0,0.1,0,0.2,0,0.3c0,0.6,0.8,0.9,1.2,0.5c0.7-0.7,1.7-1.1,2.7-1.1s2,0.4,2.7,1.1
	c0.4,0.4,1.2,0.1,1.2-0.5v0C41.8,33.3,39.9,31.5,37.7,31.6z"/>
<path class="st6" d="M34.5,38.9c-2,0-3.7,1.7-3.7,3.7s1.7,3.7,3.7,3.7s3.7-1.7,3.7-3.7S36.6,38.9,34.5,38.9"/>
<path class="st6" d="M67.8,38.8c-2.1,0-3.7,1.7-3.7,3.7c0,2,1.7,3.7,3.7,3.7s3.7-1.7,3.7-3.7S69.8,38.8,67.8,38.8"/>
<path class="st7" d="M76.7,0c-0.3,0-0.7,0-1,0.1c-7.9,0.9-7.3,10-7.3,10c0.5-0.1,1-0.2,1.4-0.2c3.5,0,5.9,2.9,8.3,5.8
	c2.4,2.9,4.6,5.8,7.8,5.8c0.6,0,1.3-0.1,2-0.4c8.2-2.9,4.3-12.8,4.3-12.8s-0.2,1.7-2.4,1.7c-0.5,0-1-0.1-1.7-0.3
	C84.5,8.9,83.7,0,76.7,0"/>
<path class="st7" d="M46.4,15.1l3.5,10.3h28.4C76.4,13.3,65,4,51.2,4S26,13.3,24,25.4h18.9L46.4,15.1L46.4,15.1z"/>
<path class="st8" d="M59,44.1c-2.2,1.8-5,2.7-7.8,2.7s-5.6-1-7.8-2.7c-0.4-0.3-1.1-0.3-1.4,0.2c-0.3,0.4-0.3,1.1,0.2,1.4
	c2.5,2,5.8,3.2,9.1,3.2s6.6-1.1,9.1-3.2c0.4-0.3,0.5-1,0.2-1.4C60.1,43.8,59.4,43.7,59,44.1L59,44.1z"/>
</svg>
