<?xml version="1.0" encoding="UTF-8"?><svg id="Layer_1" xmlns="http://www.w3.org/2000/svg" width="30.71" height="27.97" viewBox="0 0 30.71 27.97"><defs><style>.cls-1{opacity:.8;}.cls-1,.cls-2,.cls-3,.cls-4,.cls-5,.cls-6{stroke-width:0px;}.cls-1,.cls-3{fill:#2564e1;}.cls-2{fill:#60ffd9;}.cls-4{fill:#0733c7;}.cls-5{fill:#fff;}.cls-6{fill:#00a875;}</style></defs><path class="cls-1" d="m26.23,3.16v20.39c0,.53-.43.96-.96.96H7.51c.14.19.36.33.61.38l17.59,3.06c.06,0,.11.01.17.01.46,0,.87-.33.95-.8l3.87-22.25c.09-.53-.26-1.02-.79-1.12l-3.69-.64"/><path class="cls-3" d="m25.26,0H7.41c-.53,0-.96.43-.96.96v22.59c0,.53.43.96.96.96h.1c-.15-.2-.22-.47-.17-.74L11.21,1.53c.08-.47.49-.8.95-.8.05,0,.11,0,.17.01l13.9,2.42V.96c0-.53-.43-.96-.96-.96"/><path class="cls-4" d="m12.16.73c-.46,0-.87.33-.95.8l-3.87,22.25c-.05.27.02.53.17.74h17.75c.53,0,.96-.43.96-.96V3.16L12.32.74c-.06,0-.11-.01-.17-.01"/><rect class="cls-2" x="8.96" y="4.74" width="14.56" height="7.24"/><rect class="cls-2" x="8.96" y="13.86" width="14.56" height="1.11"/><rect class="cls-2" x="8.96" y="16.51" width="14.56" height="1.11"/><rect class="cls-2" x="8.96" y="19.15" width="11.22" height="1.11"/><circle class="cls-6" cx="5.28" cy="21.89" r="5.28"/><rect class="cls-5" x="3.14" y="21.41" width="6.22" height="1.43" rx=".4" ry=".4" transform="translate(-14.41 12.05) rotate(-48.24)"/><rect class="cls-5" x="3.03" y="21.42" width="1.43" height="3.31" rx=".4" ry=".4" transform="translate(-15.97 10.5) rotate(-48.24)"/></svg>