<?xml version="1.0" encoding="utf-8"?>
<!-- Generator: Adobe Illustrator 28.0.0, SVG Export Plug-In . SVG Version: 6.00 Build 0)  -->
<svg version="1.1" id="Layer_1" xmlns="http://www.w3.org/2000/svg" xmlns:xlink="http://www.w3.org/1999/xlink" x="0px" y="0px"
	 width="88px" height="87.1px" viewBox="0 0 88 87.1" style="enable-background:new 0 0 88 87.1;" xml:space="preserve">
<style type="text/css">
	.st0{fill:#F0EED7;}
	.st1{fill:#3767D3;}
	.st2{fill:#F4683D;}
	.st3{fill:#FEC266;}
	.st4{fill:#FFFFFF;}
	.st5{fill:#00DCA5;}
	.st6{fill:#00ECC4;}
	.st7{fill:#005FA2;}
</style>
<path class="st0" d="M65.1,23.4c-1.5-1.5-2.3-3.6-2.3-5.9c0-4.7,3.8-8.5,8.5-8.5c3.6,0,6.6,2.2,7.9,5.3c1.4,1.3,2.4,3.3,2.4,5.4
	c0,4.1-3.3,7.3-7.3,7.3c-1.4,0-2.7-0.4-3.8-1c-1.3-0.1-2.4-0.5-3.5-1.1L56.8,37.7c1.5,1.5,2.3,3.6,2.3,5.9c0,4.7-3.8,8.5-8.5,8.5
	c-2.6,0-4.9-1.1-6.4-2.9l-13.9,9c0.2,0.4,0.3,0.8,0.5,1.2c1.2,1.3,1.9,3.1,1.9,5c0,4.1-3.3,7.3-7.4,7.3c-1.7,0-3.3-0.6-4.5-1.6
	c-3.9-0.8-6.8-4.2-6.8-8.3c0-4.7,3.8-8.5,8.5-8.5c2.5,0,4.8,1.1,6.4,2.9l13.9-9c-0.1-0.1-0.1-0.3-0.2-0.4C41,45.4,40,43.4,40,41.1
	c0-4.1,3.3-7.3,7.3-7.3c1.6,0,3.1,0.5,4.3,1.4c1.2,0.2,2.3,0.5,3.3,1.1L65.1,23.4 M75.9,0.7h-54c-3.4,0-6.4,1.5-8.4,3.8l3.4,3.9
	c0.9,1.5-0.2,3.3-1.9,3.3h-4.3c0,0,0,0.1,0,0.1V65c0,6.2,5,11.2,11.2,11.2h54c0.1,0,0.2,0,0.3,0v-4c0-1.3,1.1-2.2,2.2-2.2
	c0.4,0,0.8,0.1,1.1,0.3l3.7,3.2c2.4-2.1,3.9-5.1,3.9-8.5V11.9C87.1,5.7,82.1,0.7,75.9,0.7"/>
<path class="st1" d="M42.8,47.2l-13.9,9c0.5,0.6,1,1.2,1.3,2l13.9-9C43.6,48.6,43.2,47.9,42.8,47.2 M65.1,23.4L54.9,36.2
	c0.7,0.4,1.3,0.9,1.8,1.5L67,24.9C66.3,24.5,65.7,24,65.1,23.4"/>
<path class="st2" d="M8.6,0C7.8,0,7.1,0.4,6.7,1.1L0.3,8.4c-0.9,1.5,0.2,3.3,1.9,3.3h5.1v62.8c-1.7,0.5-3,2.1-3,4
	c0,2.3,1.9,4.2,4.1,4.2c1.9,0,3.5-1.3,4-3h63.7v5.1c0,1.3,1.1,2.2,2.2,2.2c0.4,0,0.8-0.1,1.1-0.3l7.3-6.3c1.5-0.9,1.5-3,0-3.8
	l-3.6-3.2c-1.9,1.6-4.3,2.7-7,2.7v1.2H12.4C12,76.1,11,75,9.7,74.6V11.8h1c0-2.8,1.1-5.3,2.8-7.3l-2.9-3.4C10.1,0.4,9.3,0,8.6,0"/>
<path class="st3" d="M78.4,69.9c-1.2,0-2.2,0.9-2.2,2.2v4c2.7-0.1,5.1-1.1,7-2.7l-3.7-3.2C79.2,70,78.8,69.9,78.4,69.9 M13.5,4.5
	c-1.7,2-2.8,4.5-2.8,7.3h4.3c1.7,0,2.8-1.9,1.9-3.3L13.5,4.5"/>
<path class="st4" d="M22.5,55.7c-3.4,0-6.2,2.8-6.2,6.2c0,1.7,0.7,3.2,1.8,4.4c-0.1-0.6-0.2-1.2-0.2-1.8c0-4.1,3.3-7.3,7.3-7.3
	c0.4,0,0.8,0,1.2,0.1C25.5,56.3,24.1,55.7,22.5,55.7"/>
<path class="st1" d="M22.5,53.3c-4.7,0-8.5,3.8-8.5,8.5c0,4.1,2.9,7.5,6.8,8.3c-1.2-1-2.2-2.4-2.6-4c-1.1-1.1-1.8-2.7-1.8-4.4
	c0-3.4,2.8-6.2,6.2-6.2c1.5,0,3,0.6,4,1.5c1.6,0.3,3.1,1.1,4.2,2.3c-0.1-0.4-0.3-0.8-0.5-1.2c-0.3-0.7-0.8-1.4-1.3-2
	C27.4,54.4,25.1,53.3,22.5,53.3"/>
<path class="st4" d="M54.3,38.6c0.3,0.8,0.4,1.6,0.4,2.4c0,4.1-3.3,7.3-7.3,7.3c-0.2,0-0.4,0-0.6,0c1.1,0.8,2.4,1.4,3.9,1.4
	c3.4,0,6.2-2.8,6.2-6.2C56.7,41.6,55.8,39.8,54.3,38.6"/>
<path class="st1" d="M51.6,35.1c1.2,0.9,2.1,2.1,2.6,3.5c1.5,1.1,2.5,2.9,2.5,5c0,3.4-2.8,6.2-6.2,6.2c-1.5,0-2.8-0.5-3.9-1.4
	c-1.5-0.1-2.9-0.7-4.1-1.6c0.1,0.2,0.1,0.3,0.2,0.4c0.3,0.7,0.8,1.4,1.3,2c1.6,1.8,3.9,2.9,6.4,2.9c4.7,0,8.5-3.8,8.5-8.5
	c0-2.3-0.9-4.3-2.3-5.9c-0.5-0.6-1.2-1.1-1.8-1.5C53.9,35.7,52.8,35.3,51.6,35.1"/>
<path class="st4" d="M71.3,11.4c-3.4,0-6.2,2.8-6.2,6.2c0,1.9,0.8,3.6,2.2,4.7c-0.3-0.8-0.4-1.6-0.4-2.5c0-4.1,3.3-7.4,7.3-7.4
	c0.2,0,0.3,0,0.5,0C73.7,11.7,72.5,11.3,71.3,11.4"/>
<path class="st1" d="M71.3,9c-4.7,0-8.5,3.8-8.5,8.5c0,2.3,0.9,4.3,2.3,5.9c0.5,0.6,1.2,1.1,1.8,1.5c1,0.6,2.2,1,3.5,1.1
	c-1.4-0.9-2.6-2.2-3.1-3.8c-1.3-1.1-2.2-2.8-2.2-4.7c0-3.4,2.8-6.2,6.2-6.2c1.2,0,2.4,0.4,3.4,1c1.7,0.1,3.3,0.8,4.5,1.9
	C77.9,11.2,74.9,9,71.3,9"/>
<path class="st5" d="M79.2,14.3c0.4,1,0.6,2.1,0.6,3.2c0,4.7-3.8,8.5-8.5,8.5c-0.3,0-0.6,0-0.9,0c1.1,0.7,2.4,1,3.8,1
	c4.1,0,7.3-3.3,7.3-7.3C81.5,17.6,80.6,15.7,79.2,14.3"/>
<path class="st6" d="M74.2,12.4c-4.1,0-7.3,3.3-7.3,7.4c0,0.9,0.2,1.7,0.4,2.5c1.1,0.9,2.5,1.5,4,1.5c3.4,0,6.2-2.8,6.2-6.2
	c0-2.2-1.1-4.1-2.8-5.2C74.5,12.4,74.4,12.4,74.2,12.4"/>
<path class="st7" d="M74.7,12.4c1.7,1.1,2.8,3,2.8,5.2c0,3.4-2.8,6.2-6.2,6.2c-1.5,0-2.9-0.6-4-1.5c0.6,1.6,1.7,2.9,3.1,3.8
	c0.3,0,0.6,0,0.9,0c4.7,0,8.5-3.8,8.5-8.5c0-1.1-0.2-2.2-0.6-3.2C78,13.2,76.4,12.5,74.7,12.4"/>
<path class="st5" d="M47.3,33.7c-4.1,0-7.3,3.3-7.3,7.3c0,2.3,1,4.3,2.7,5.7c-0.4-1-0.6-2-0.6-3.2c0-4.7,3.8-8.5,8.5-8.5
	c0.4,0,0.7,0,1.1,0.1C50.4,34.2,48.9,33.7,47.3,33.7"/>
<path class="st6" d="M50.6,37.4c-3.4,0-6.2,2.8-6.2,6.2c0,1.9,0.9,3.7,2.3,4.8c0.2,0,0.4,0,0.6,0c4.1,0,7.4-3.3,7.4-7.3
	c0-0.8-0.2-1.7-0.4-2.4C53.2,37.9,52,37.4,50.6,37.4"/>
<path class="st7" d="M50.6,35.1c-4.7,0-8.5,3.8-8.5,8.5c0,1.1,0.2,2.2,0.6,3.2c1.1,0.9,2.5,1.5,4.1,1.6c-1.4-1.1-2.3-2.9-2.3-4.8
	c0-3.4,2.8-6.2,6.2-6.2c1.4,0,2.7,0.5,3.7,1.2c-0.5-1.4-1.4-2.7-2.6-3.5C51.3,35.1,50.9,35,50.6,35.1"/>
<path class="st5" d="M30.7,59.4c0.2,0.8,0.3,1.6,0.3,2.4c0,4.7-3.8,8.5-8.5,8.5c-0.6,0-1.2-0.1-1.8-0.2c1.2,1,2.8,1.6,4.5,1.6
	c4.1,0,7.4-3.3,7.4-7.3C32.6,62.5,31.9,60.8,30.7,59.4"/>
<path class="st6" d="M25.3,57.1c-4.1,0-7.4,3.3-7.4,7.3c0,0.6,0.1,1.2,0.2,1.8c1.1,1.1,2.7,1.8,4.3,1.8c3.4,0,6.2-2.8,6.2-6.2
	c0-1.9-0.8-3.5-2.1-4.7C26.1,57.1,25.7,57.1,25.3,57.1"/>
<path class="st7" d="M26.5,57.2c1.3,1.1,2.1,2.8,2.1,4.7c0,3.4-2.8,6.2-6.2,6.2c-1.7,0-3.2-0.7-4.4-1.8c0.4,1.6,1.3,3,2.6,4
	c0.6,0.1,1.2,0.2,1.8,0.2c4.7,0,8.5-3.8,8.5-8.5c0-0.8-0.1-1.6-0.3-2.4C29.6,58.3,28.2,57.5,26.5,57.2"/>
</svg>
