<svg width="25" height="28" viewBox="0 0 25 28" fill="none" xmlns="http://www.w3.org/2000/svg">
<g clip-path="url(#clip0_1077_15084)">
<path d="M7.62005 16.5198C7.16005 16.5198 6.70006 16.9998 7.01006 17.5098C7.76006 18.7698 6.22005 19.8998 5.21005 20.2898C3.90005 20.7998 2.50005 21.0198 1.36005 21.8998C0.310055 22.7198 -0.239945 23.9798 0.110055 25.2998C0.460055 26.6098 1.56005 27.5998 2.88005 27.8698C3.18005 27.9298 3.49005 27.9598 3.79005 27.9598C4.89005 27.9598 5.96005 27.5598 6.85005 26.8898C7.98005 26.0398 8.59005 24.8798 9.40005 23.7598C9.75005 23.2698 10.1901 22.7998 10.8001 22.6698C10.9401 22.6398 11.0701 22.6298 11.2101 22.6298C11.6601 22.6298 12.1101 22.7698 12.5301 22.9198C13.6101 23.2998 14.6701 23.8498 15.8301 23.8498C15.9601 23.8498 16.0901 23.8498 16.2201 23.8298C17.8001 23.6498 18.9501 22.4198 19.7401 21.1398C19.9001 20.8798 20.0501 20.6198 20.1901 20.3498C20.0101 20.3798 19.8301 20.3998 19.6401 20.3998C19.6201 20.3998 19.6001 20.3998 19.5801 20.3998C19.2801 20.3998 18.9801 20.3398 18.7101 20.2498C18.1301 21.2398 17.2801 22.3898 16.0601 22.5098C15.9701 22.5098 15.8901 22.5198 15.8001 22.5198C14.7401 22.5198 13.7101 21.8998 12.7301 21.5798C12.2301 21.4198 11.7201 21.3098 11.2101 21.3098C10.5901 21.3098 9.99005 21.4598 9.45005 21.8298C8.45005 22.5098 7.95005 23.6298 7.27005 24.5898C6.51005 25.6398 5.37006 26.5598 4.03006 26.6298C3.97006 26.6298 3.92005 26.6298 3.86005 26.6298C2.67005 26.6298 1.49005 25.9298 1.35005 24.6498C1.21005 23.3898 2.45005 22.6398 3.47005 22.2598C4.85005 21.7398 6.45006 21.5198 7.53006 20.4098C8.45006 19.4698 8.88005 18.0198 8.18005 16.8298C8.05005 16.5998 7.84005 16.5098 7.64005 16.5098" fill="#00A875"/>
<path opacity="0.7" d="M3.01007 2C1.47007 3.73 0.590072 5.88 0.510072 8.11C0.420072 10.55 1.28007 12.79 2.95007 14.44C3.07007 14.56 3.22007 14.62 3.38007 14.62C3.54007 14.62 3.69007 14.56 3.81007 14.44C4.05007 14.2 4.04007 13.81 3.81007 13.58C2.39007 12.18 1.66007 10.25 1.73007 8.16C1.79007 6.53 2.34007 4.94 3.31007 3.58C3.13007 3.39 3.01007 3.13 3.01007 2.85V2Z" fill="#D4D4D4"/>
<path opacity="0.7" d="M12.68 2.34008V2.85008C12.68 3.22008 12.49 3.54008 12.2 3.73008C13.1 5.06008 13.62 6.58008 13.68 8.16008C13.76 10.2501 13.02 12.1801 11.6 13.5801C11.36 13.8201 11.36 14.2001 11.6 14.4401C11.72 14.5601 11.88 14.6201 12.03 14.6201C12.18 14.6201 12.34 14.5601 12.46 14.4401C14.12 12.7901 14.99 10.5401 14.9 8.11008C14.82 6.01008 14.04 4.00008 12.68 2.33008" fill="#D4D4D4"/>
<path d="M4.05006 0C3.47006 0 3.00006 0.47 3.00006 1.05V2.01C3.12006 1.87 3.25006 1.74 3.38006 1.61C3.50006 1.49 3.66006 1.43 3.81006 1.43C3.97006 1.43 4.12006 1.49 4.24006 1.61C4.48006 1.85 4.48006 2.23 4.24006 2.47C3.89006 2.82 3.57006 3.2 3.29006 3.6C3.48006 3.79 3.74006 3.91 4.04006 3.91C4.62006 3.91 5.09006 3.44 5.09006 2.86V1.06C5.09006 0.48 4.62006 0.01 4.04006 0.01" fill="#00A875"/>
<path d="M3.82007 1.42016C3.66007 1.42016 3.51007 1.48016 3.39007 1.60016C3.26007 1.73016 3.13007 1.87016 3.01007 2.00016V2.85016C3.01007 3.13016 3.12007 3.39016 3.31007 3.58016C3.59007 3.18016 3.91007 2.81016 4.26007 2.45016C4.50007 2.21016 4.49007 1.82016 4.26007 1.59016C4.14007 1.47016 3.99007 1.41016 3.83007 1.41016" fill="#00573A"/>
<path d="M11.6301 0.000234375C11.0501 0.000234375 10.5801 0.470234 10.5801 1.05023V2.85023C10.5801 3.43023 11.0501 3.90023 11.6301 3.90023C11.8401 3.90023 12.0301 3.84023 12.2001 3.73023C11.8901 3.28023 11.5401 2.85023 11.1501 2.45023C10.9101 2.21023 10.9201 1.82023 11.1501 1.59023C11.2701 1.47023 11.4201 1.41023 11.5801 1.41023C11.7401 1.41023 11.8901 1.47023 12.0101 1.59023C12.2501 1.83023 12.4701 2.07023 12.6801 2.33023V1.04023C12.6801 0.460234 12.2101 -0.00976562 11.6301 -0.00976562" fill="#00A875"/>
<path d="M11.58 1.41992C11.42 1.41992 11.27 1.47992 11.15 1.59992C10.91 1.83992 10.91 2.21992 11.15 2.45992C11.54 2.85992 11.9 3.27992 12.2 3.73992C12.49 3.54992 12.68 3.22992 12.68 2.85992V2.34992C12.47 2.08992 12.25 1.84992 12.01 1.60992C11.89 1.48992 11.73 1.42992 11.58 1.42992" fill="#00573A"/>
<path d="M21.3901 12.96C20.2301 12.96 19.2301 13.64 18.7601 14.62C19.0401 14.53 19.3301 14.49 19.6401 14.49C19.6601 14.49 19.6801 14.49 19.7001 14.49C21.3301 14.52 22.6301 15.87 22.6001 17.5C22.6001 17.9 22.5101 18.27 22.3601 18.61C23.4701 18.22 24.2801 17.17 24.3001 15.92C24.3301 14.31 23.0501 12.99 21.4501 12.96C21.4301 12.96 21.4101 12.96 21.3901 12.96Z" fill="#60FFD9"/>
<path opacity="0.5" d="M22.3501 18.6101C22.0501 18.7201 21.7201 18.7701 21.3901 18.7701C21.3701 18.7701 21.3501 18.7701 21.3301 18.7701C21.1901 18.7701 21.0401 18.7501 20.9001 18.7301C20.6901 19.2801 20.4501 19.8201 20.1801 20.3401C21.1501 20.1601 21.9601 19.5001 22.3501 18.6101ZM18.7601 14.6201C17.5801 14.9901 16.7101 16.0801 16.6901 17.3901C16.6601 18.7201 17.5201 19.8601 18.7201 20.2501C18.7401 20.2101 18.7701 20.1701 18.7901 20.1201C19.1401 19.5101 19.4401 18.8701 19.6801 18.2101C18.9401 17.6701 18.4701 16.7901 18.4901 15.8101C18.4901 15.3801 18.6001 14.9801 18.7701 14.6201" fill="#00A875"/>
<path d="M19.68 18.2202C19.44 18.8802 19.14 19.5102 18.79 20.1302C18.77 20.1702 18.74 20.2102 18.72 20.2602C18.99 20.3502 19.29 20.4002 19.59 20.4102C19.61 20.4102 19.63 20.4102 19.65 20.4102C19.84 20.4102 20.02 20.3902 20.2 20.3602C20.47 19.8402 20.72 19.3002 20.92 18.7502C20.46 18.6702 20.04 18.4902 19.69 18.2302" fill="#00B66E"/>
<path d="M19.64 14.4902C19.33 14.4902 19.04 14.5402 18.76 14.6202C18.59 14.9802 18.49 15.3802 18.48 15.8102C18.46 16.7902 18.93 17.6702 19.67 18.2102C20.03 18.4702 20.45 18.6502 20.9 18.7302C21.04 18.7502 21.18 18.7702 21.33 18.7702C21.35 18.7702 21.37 18.7702 21.39 18.7702C21.73 18.7702 22.05 18.7102 22.35 18.6102C22.5 18.2702 22.58 17.8902 22.59 17.5002C22.62 15.8702 21.32 14.5202 19.69 14.4902C19.67 14.4902 19.65 14.4902 19.63 14.4902" fill="#35AC8F"/>
<path d="M8.60006 15.8999H7.12006V18.3699H8.60006V15.8999Z" fill="#004C56"/>
<path d="M8.59006 18.37V17.76H7.72006V16.51H7.98006V18.37H8.59006H9.20006V15.9C9.20006 15.74 9.13006 15.58 9.02006 15.47C8.91006 15.36 8.75006 15.29 8.59006 15.29H7.11006C6.95006 15.29 6.79006 15.36 6.68006 15.47C6.57006 15.58 6.50006 15.74 6.50006 15.9V18.37C6.50006 18.53 6.57006 18.69 6.68006 18.8C6.79006 18.91 6.95006 18.98 7.11006 18.98H8.59006C8.75006 18.98 8.91006 18.91 9.02006 18.8C9.13006 18.69 9.20006 18.53 9.20006 18.37H8.59006Z" fill="#60FFD9"/>
<path d="M7.67007 16.5399C5.21007 16.5399 2.49007 15.9199 0.710068 11.6799C0.470068 11.1099 0.740068 10.4599 1.30007 10.2199C1.87007 9.97986 2.52007 10.2499 2.76007 10.8099C4.13007 14.0699 5.93007 14.3399 7.81007 14.3099C9.64007 14.2899 11.6901 13.9899 12.9301 10.6399C13.1401 10.0599 13.7801 9.76986 14.3601 9.97986C14.9401 10.1899 15.2301 10.8299 15.0201 11.4099C13.3401 15.9499 10.1201 16.4999 7.84007 16.5299H7.68007L7.67007 16.5399Z" fill="#60FFD9"/>
</g>
<defs>
<clipPath id="clip0_1077_15084">
<rect width="24.3" height="27.98" fill="white"/>
</clipPath>
</defs>
</svg>
