<?xml version="1.0" encoding="UTF-8"?><svg id="Layer_1" xmlns="http://www.w3.org/2000/svg" width="41.72" height="27.96" viewBox="0 0 41.72 27.96"><defs><style>.cls-1{fill:#2564e1;}.cls-1,.cls-2,.cls-3,.cls-4{stroke-width:0px;}.cls-2{fill:#00a875;}.cls-3{fill:#00416a;}.cls-4{fill:#0095d1;}</style></defs><path class="cls-1" d="m20.47,13.02c-.08,0-.15,0-.23,0-3.1.03-5.9,1.3-7.94,3.33,2.46,1.41,4.11,4.07,4.11,7.1v1.09c0,.74-.6,1.34-1.34,1.34h-6.16v.18c0,1.04.85,1.89,1.89,1.89h19.34c1.04,0,1.89-.85,1.89-1.89v-.86h-5.37c-.74,0-1.34-.6-1.34-1.34v-1.09c0-2.65,1.26-5.02,3.23-6.51-2.03-1.98-4.79-3.21-7.85-3.24-.08,0-.15,0-.23,0"/><circle class="cls-1" cx="20.47" cy="6.05" r="6.05"/><path class="cls-2" d="m33.52,14.61c-.05,0-.11,0-.16,0-1.81.02-3.48.63-4.82,1.65,2.15,2.1,3.49,5.03,3.49,8.27v.68h8.35c.74,0,1.34-.6,1.34-1.34v-1.09c0-4.46-3.58-8.12-8.04-8.16-.05,0-.11,0-.16,0"/><path class="cls-4" d="m28.54,16.26c-1.96,1.49-3.23,3.86-3.23,6.51v1.09c0,.74.6,1.34,1.34,1.34h5.37v-.68c0-3.23-1.34-6.17-3.49-8.27"/><path class="cls-2" d="m33.52,5.37c-2.37,0-4.29,1.92-4.29,4.29s1.92,4.29,4.29,4.29,4.29-1.92,4.29-4.29-1.92-4.29-4.29-4.29"/><path class="cls-2" d="m8.2,15.29c-.05,0-.11,0-.16,0-4.46.04-8.04,3.7-8.04,8.16v1.09c0,.74.6,1.34,1.34,1.34h7.56v-1.36c0-3.19,1.3-6.08,3.39-8.17-1.16-.67-2.5-1.05-3.93-1.07-.05,0-.11,0-.16,0"/><path class="cls-3" d="m12.3,16.36c-2.1,2.09-3.39,4.98-3.39,8.17v1.36h6.16c.74,0,1.34-.6,1.34-1.34v-1.09c0-3.03-1.65-5.69-4.11-7.1"/><path class="cls-2" d="m8.2,6.05c-2.37,0-4.29,1.92-4.29,4.29s1.92,4.29,4.29,4.29,4.29-1.92,4.29-4.29-1.92-4.29-4.29-4.29"/></svg>